# xmcd
#
# Track frame offsets:
# 150
# 19607
# 40155
# 60635
#
# Disc length: 1016 seconds
#
#
# Revision: 0
# Processed by: cddbd v1.5.1PL0 Copyright (c) Steve Scherf et al.
# Submitted via: FreeRIP 2.35 
#
DISCID=2803f604
DTITLE=Apurimac - Χωρίς Σύνορα
DYEAR=2000
DGENRE=Country
TTITLE0=Hasta Siempre
TTITLE1=Ay Che Camino
TTITLE2=Τσε Γκεβάρα
TTITLE3=Τσε
EXTD=
EXTT0=
EXTT1=
EXTT2=
EXTT3=
PLAYORDER=
